<svg width="249" height="230" viewBox="0 0 249 230" fill="none" xmlns="http://www.w3.org/2000/svg">
<g clip-path="url(#clip0_1399_5899)">
<path d="M226.851 184.267L206.638 154.257C206.638 154.257 237.249 164.938 233.775 184.267H226.851Z" fill="#E5E5E5"/>
<path d="M17.3275 184.465L16.5601 184.45C16.8569 175.923 17.7672 167.427 19.284 159.03C22.6021 141.052 28.1196 129.245 35.6832 123.937L36.1238 124.564C18.4552 136.964 17.3364 183.992 17.3275 184.465Z" fill="#E5E5E5"/>
<path d="M26.9192 184.282L26.1519 184.267C26.1684 183.418 26.6479 163.4 34.5322 157.867L34.9728 158.495C27.4066 163.804 26.9229 184.078 26.9192 184.282Z" fill="#E5E5E5"/>
<path d="M40.4891 124.634C42.608 124.634 44.3258 122.917 44.3258 120.799C44.3258 118.681 42.608 116.964 40.4891 116.964C38.3701 116.964 36.6524 118.681 36.6524 120.799C36.6524 122.917 38.3701 124.634 40.4891 124.634Z" fill="#68E181"/>
<path d="M38.5891 157.614C40.708 157.614 42.4257 155.897 42.4257 153.779C42.4257 151.661 40.708 149.944 38.5891 149.944C36.4701 149.944 34.7524 151.661 34.7524 153.779C34.7524 155.897 36.4701 157.614 38.5891 157.614Z" fill="#68E181"/>
<path d="M25.1306 126.933C25.8516 131.536 23.9724 135.654 23.9724 135.654C23.9724 135.654 20.924 132.308 20.203 127.704C19.4819 123.101 21.3612 118.983 21.3612 118.983C21.3612 118.983 24.4096 122.33 25.1306 126.933Z" fill="#E5E5E5"/>
<path d="M37.6715 138.113C33.262 139.625 28.8784 138.493 28.8784 138.493C28.8784 138.493 31.6438 134.909 36.0533 133.398C40.4627 131.886 44.8465 133.018 44.8465 133.018C44.8465 133.018 42.081 136.601 37.6715 138.113Z" fill="#E5E5E5"/>
<path d="M37.8134 167.32C35.8177 167.946 33.6924 168.038 31.6501 167.586C32.9468 165.935 34.6933 164.695 36.6791 164.014C38.6649 163.334 40.8053 163.241 42.8424 163.748C41.5079 165.358 39.7737 166.59 37.8134 167.32Z" fill="#E5E5E5"/>
<path d="M248.616 185.034H0.383667C0.281912 185.034 0.184331 184.993 0.112379 184.921C0.0404275 184.849 0 184.752 0 184.65C0 184.548 0.0404275 184.451 0.112379 184.379C0.184331 184.307 0.281912 184.267 0.383667 184.267H248.616C248.718 184.267 248.816 184.307 248.888 184.379C248.96 184.451 249 184.548 249 184.65C249 184.752 248.96 184.849 248.888 184.921C248.816 184.993 248.718 185.034 248.616 185.034Z" fill="#CBCBCB"/>
<path d="M157.224 202.712L154.085 210.878L121.08 202.662L125.713 190.61L157.224 202.712Z" fill="#FFB7B7"/>
<path d="M165.943 203.671L155.822 230L155.489 229.872C152.77 228.828 150.577 226.747 149.393 224.087C148.209 221.426 148.131 218.405 149.175 215.687L149.175 215.686L155.357 199.605L165.943 203.671Z" fill="#2F2E41"/>
<path d="M107.072 100.471L92.689 101.817L91.9755 144.592C92.1662 146.688 93.1706 148.627 94.7736 149.992C96.3766 151.357 98.4507 152.04 100.552 151.896L109.671 151.268L107.072 100.471Z" fill="#E5E5E5"/>
<path d="M157.778 98.3654L147.937 98.2388L147.354 149.065C149.528 149.137 151.695 148.761 153.718 147.959C155.74 147.158 157.576 145.949 159.111 144.407C160.645 142.865 161.846 141.023 162.637 138.997C163.428 136.971 163.792 134.804 163.708 132.63L157.778 98.3654Z" fill="#E5E5E5"/>
<path d="M100.674 167.121C100.441 168.595 100.103 170.051 99.662 171.476C99.1654 172.872 98.3987 174.163 97.9447 175.573C96.4973 180.068 98.5038 185.08 101.708 188.55C104.487 191.546 108.075 193.675 112.037 194.68C114.928 195.407 117.934 195.511 120.913 195.612C129.163 195.892 137.625 196.142 145.443 193.492C147.913 192.634 150.298 191.551 152.569 190.256C153.286 189.915 153.918 189.417 154.418 188.801C155.015 187.952 155.091 186.852 155.086 185.815C155.068 182.319 154.359 178.842 154.527 175.35C154.621 173.416 154.983 171.483 154.805 169.555C154.558 167.365 153.64 165.305 152.177 163.657C150.714 162.009 148.777 160.853 146.631 160.347C144.413 159.871 142.113 160.13 139.856 160.347C133.995 160.91 128.11 161.173 122.222 161.135C116.207 161.097 110.229 160.179 104.243 160.083C102.473 160.055 102.509 160.6 101.946 162.313C101.427 163.889 101.002 165.494 100.674 167.121Z" fill="#2F2E41"/>
<path d="M77.1523 164.279C75.5347 163.873 73.868 163.696 72.2011 163.753C70.4498 163.85 68.7391 164.318 67.1828 165.127C65.6266 165.936 64.2604 167.066 63.1752 168.444C62.0899 169.821 61.3105 171.414 60.8887 173.115C60.4668 174.817 60.4123 176.589 60.7287 178.314C61.1326 180.182 61.7928 181.985 62.6906 183.672C64.0036 186.336 65.5784 188.993 68.0092 190.7C69.4312 191.698 71.0769 192.321 72.7031 192.933L85.5056 197.754C87.3889 198.463 89.2726 199.172 91.1746 199.83C100.73 203.131 110.693 205.111 120.785 205.714C123.859 205.897 126.98 205.947 129.979 205.248C130.69 205.082 131.45 204.834 131.862 204.231C132.106 203.806 132.249 203.331 132.282 202.842L133.07 197.33C133.181 196.554 133.288 195.737 133.003 195.006C132.642 194.08 131.738 193.497 130.875 193.002C122.458 188.17 112.631 185.504 105.546 178.872C103.879 177.311 102.483 174.836 100.457 173.776C98.1587 172.573 95.4525 171.887 93.0773 170.779C87.8849 168.356 82.7798 165.572 77.1523 164.279Z" fill="#2F2E41"/>
<path opacity="0.1" d="M89.9338 171.711C94.4589 173.128 113.564 182.947 116.839 186.376C116.4 186.534 101.507 178.191 101.06 178.057C96.998 176.839 92.9133 175.612 89.0557 173.829C88.2797 173.47 84.0142 171.784 84.2073 170.805C84.4253 169.701 89.1304 171.46 89.9338 171.711Z" fill="black"/>
<path d="M117.244 86.0933L105.06 95.3398C105.06 95.3398 92.2038 95.7418 92.6382 103.956C93.0726 112.171 98.218 151.063 98.218 151.063L99.3343 164.445L120.51 170.476C131.952 173.734 144.04 173.993 155.61 171.228L153.094 157.803C153.094 157.803 163.284 96.8311 157.145 94.1467C151.006 91.4622 147.17 92.2292 147.17 92.2292L139.475 85.5181L117.244 86.0933Z" fill="#E5E5E5"/>
<path d="M153.308 71.1582C153.308 83.1618 142.204 81.3462 128.506 81.3462C114.808 81.3462 103.704 83.1618 103.704 71.1582C103.704 59.1547 109.128 37.8774 128.506 37.8774C148.552 37.8774 153.308 59.1547 153.308 71.1582Z" fill="#2F2E41"/>
<path d="M141.399 75.226C147.917 68.7113 147.917 58.149 141.399 51.6343C134.881 45.1196 124.314 45.1196 117.796 51.6343C111.278 58.149 111.278 68.7114 117.796 75.226C124.314 81.7407 134.881 81.7407 141.399 75.226Z" fill="#FFB7B7"/>
<path d="M109.14 63.0078H115.741L118.653 54.8574L119.235 63.0078H122.39L124.089 58.2534L124.429 63.0078H147.872C147.872 58.3243 146.011 53.8326 142.698 50.5209C139.384 47.2092 134.891 45.3486 130.205 45.3486H126.807C122.122 45.3486 117.628 47.2092 114.314 50.5209C111.001 53.8326 109.14 58.3243 109.14 63.0078Z" fill="#2F2E41"/>
<path d="M145.251 88.0107H111.872V128.277H145.251V88.0107Z" fill="#68E181"/>
<path d="M113.712 202.329L116.851 210.494L149.855 202.279L145.223 190.227L113.712 202.329Z" fill="#FFB7B7"/>
<path d="M115.578 199.221L121.76 215.302L121.76 215.303C122.805 218.021 122.726 221.042 121.542 223.703C120.358 226.363 118.165 228.444 115.446 229.488L115.113 229.616L104.992 203.287L115.578 199.221Z" fill="#2F2E41"/>
<path d="M179.685 161.154C182.336 160.489 185.085 160.301 187.802 160.599C189.972 160.838 192.208 161.442 193.792 162.943C195.72 164.77 196.34 167.596 196.392 170.252C196.477 175.541 194.722 180.695 191.426 184.835C190.622 185.882 189.665 186.802 188.588 187.566C187.425 188.293 186.187 188.889 184.894 189.345L156.224 200.649C148.681 203.622 141.112 206.604 133.244 208.565C132.817 208.771 132.324 208.799 131.876 208.643C131.427 208.486 131.059 208.158 130.853 207.731C130.847 207.718 130.841 207.705 130.835 207.691C128.323 204.105 126.215 200.252 124.551 196.202C124.472 196.106 124.417 195.992 124.392 195.87C124.366 195.749 124.371 195.623 124.404 195.503C124.438 195.383 124.5 195.273 124.585 195.182C124.67 195.092 124.776 195.023 124.893 194.981L145.172 183.335C146.625 182.501 148.093 181.655 149.3 180.493C150.176 179.644 150.894 178.645 151.419 177.544C151.839 176.666 151.878 174.595 152.415 173.947C152.941 173.312 154.739 173.261 155.57 173.011C156.741 172.653 157.888 172.219 159.004 171.714C163.54 169.685 167.58 166.738 171.928 164.363C174.367 162.969 176.974 161.891 179.685 161.154Z" fill="#2F2E41"/>
<path opacity="0.1" d="M168.188 169.851C164.704 172.466 160.193 174.871 156.74 177.555C155.562 178.471 135.916 189.511 135.638 190.977C138.86 191.52 159.381 177.17 162.317 175.739C165.253 174.307 167.856 172.288 170.435 170.283C171.092 169.773 173.877 168.237 171.991 167.666C170.928 167.345 168.973 169.328 168.188 169.851Z" fill="black"/>
<path d="M230.809 68.9185C237.43 68.9185 242.798 63.5534 242.798 56.9353C242.798 50.3172 237.43 44.9521 230.809 44.9521C224.188 44.9521 218.82 50.3172 218.82 56.9353C218.82 63.5534 224.188 68.9185 230.809 68.9185Z" fill="#F1F1F1"/>
<path d="M208.621 71.0647C213.265 71.0647 217.031 67.3011 217.031 62.6586C217.031 58.016 213.265 54.2524 208.621 54.2524C203.976 54.2524 200.211 58.016 200.211 62.6586C200.211 67.3011 203.976 71.0647 208.621 71.0647Z" fill="#F1F1F1"/>
<path d="M54.5624 65.5814C58.2866 65.5814 61.3057 62.5638 61.3057 58.8413C61.3057 55.1188 58.2866 52.1011 54.5624 52.1011C50.8381 52.1011 47.819 55.1188 47.819 58.8413C47.819 62.5638 50.8381 65.5814 54.5624 65.5814Z" fill="#F1F1F1"/>
<path d="M65.6647 70.1136C68.2773 70.1136 70.3951 67.9967 70.3951 65.3854C70.3951 62.7741 68.2773 60.6572 65.6647 60.6572C63.0522 60.6572 60.9343 62.7741 60.9343 65.3854C60.9343 67.9967 63.0522 70.1136 65.6647 70.1136Z" fill="#F1F1F1"/>
<path d="M131.081 10.3045C133.928 10.3045 136.236 7.99777 136.236 5.15226C136.236 2.30674 133.928 0 131.081 0C128.234 0 125.926 2.30674 125.926 5.15226C125.926 7.99777 128.234 10.3045 131.081 10.3045Z" fill="#F1F1F1"/>
<path opacity="0.17" d="M100.362 113.705L100.823 110.15C100.823 110.15 118.011 111.404 115.325 115.622C112.639 119.841 106.117 120.224 106.117 120.224L100.362 113.705Z" fill="#2F2E41"/>
<path d="M113.336 98.2474C114.321 98.3558 115.269 98.6806 116.113 99.1987C116.957 99.7167 117.676 100.415 118.218 101.244C118.712 102 119.048 102.848 119.206 103.737C119.364 104.626 119.34 105.538 119.136 106.418C118.933 107.298 118.553 108.127 118.021 108.857C117.488 109.586 116.814 110.201 116.038 110.663C115.753 110.831 115.456 110.977 115.15 111.1L104.585 143.4C104.279 144.037 103.85 144.608 103.322 145.079C102.795 145.55 102.179 145.912 101.511 146.145C100.843 146.377 100.136 146.475 99.4298 146.434C98.7237 146.392 98.0328 146.211 97.3968 145.902C96.7609 145.592 96.1924 145.16 95.7241 144.63C95.2557 144.101 94.8968 143.483 94.6678 142.815C94.4389 142.146 94.3445 141.438 94.3901 140.733C94.4356 140.027 94.6203 139.337 94.9333 138.704L106.169 106.762C105.863 105.705 105.822 104.589 106.05 103.513C106.278 102.436 106.769 101.433 107.477 100.591C108.186 99.7493 109.091 99.095 110.113 98.6862C111.135 98.2774 112.242 98.1267 113.336 98.2474Z" fill="#FFB7B7"/>
<path d="M100.52 110.453C100.52 110.453 106.573 120.79 115.325 115.622L106.843 148.065H99.6974L92.3051 146.685L94.3749 133.281L100.52 110.453Z" fill="#E5E5E5"/>
<path d="M143.744 117.518L138.729 110.637C138.729 110.637 141.139 103.499 150.485 106.109C150.485 106.109 156.432 119.415 143.744 117.518Z" fill="#E5E5E5"/>
<path opacity="0.17" d="M143.744 117.518L138.729 110.637C138.729 110.637 141.139 103.499 150.485 106.109C150.485 106.109 156.432 119.415 143.744 117.518Z" fill="#2F2E41"/>
<path d="M145.071 93.4753C146.518 94.1476 147.675 95.3165 148.333 96.7696C148.99 98.2227 149.103 99.8633 148.653 101.393L159.888 133.335C160.201 133.969 160.386 134.658 160.431 135.364C160.477 136.069 160.383 136.777 160.154 137.446C159.925 138.115 159.566 138.732 159.097 139.262C158.629 139.792 158.061 140.224 157.425 140.533C156.789 140.843 156.098 141.023 155.392 141.065C154.685 141.107 153.978 141.008 153.31 140.776C152.642 140.543 152.027 140.181 151.499 139.71C150.972 139.239 150.543 138.668 150.236 138.031L139.672 105.731C139.365 105.608 139.068 105.462 138.783 105.294C138.007 104.832 137.333 104.217 136.8 103.488C136.268 102.758 135.888 101.929 135.685 101.049C135.481 100.169 135.458 99.2574 135.615 98.3682C135.773 97.4791 136.109 96.631 136.603 95.8748C137.145 95.0462 137.864 94.3478 138.708 93.8298C139.552 93.3117 140.5 92.9869 141.485 92.8786C142.713 92.7395 143.955 92.9462 145.071 93.4753Z" fill="#FFB7B7"/>
<path d="M138.729 110.637C138.729 110.637 147.003 115.655 150.485 106.109L162.144 136.794L158.679 142.85L158.178 142.892C156.112 143.064 154.034 142.732 152.124 141.925C150.214 141.117 148.528 139.859 147.212 138.257C144.527 134.989 142.7 131.104 141.894 126.954L138.729 110.637Z" fill="#E5E5E5"/>
</g>
<defs>
<clipPath id="clip0_1399_5899">
<rect width="249" height="230" fill="white"/>
</clipPath>
</defs>
</svg>