<svg width="19" height="22" viewBox="0 0 19 22" fill="none" xmlns="http://www.w3.org/2000/svg">
<path d="M9.99992 20H14.9999V22H2.99992V20H7.99992V18.95C6.4144 18.7908 4.88986 18.2551 3.55328 17.3875C2.2167 16.5199 1.10676 15.3454 0.315918 13.962L2.05292 12.97C2.6637 14.0373 3.51229 14.9494 4.53277 15.6355C5.55325 16.3215 6.71815 16.7631 7.93699 16.926C9.15583 17.0888 10.3958 16.9684 11.5606 16.5743C12.7254 16.1801 13.7836 15.5227 14.6531 14.6532C15.5226 13.7837 16.18 12.7255 16.5741 11.5607C16.9683 10.3959 17.0886 9.15596 16.9258 7.93712C16.763 6.71828 16.3214 5.55337 15.6353 4.53289C14.9493 3.51241 14.0372 2.66382 12.9699 2.05304L13.9619 0.31604C15.493 1.19059 16.7654 2.45454 17.6502 3.97967C18.535 5.5048 19.0007 7.23684 18.9999 9.00004C18.9999 14.185 15.0529 18.449 9.99992 18.95V20ZM8.99992 16C8.08066 16 7.17041 15.819 6.32113 15.4672C5.47185 15.1154 4.70018 14.5998 4.05017 13.9498C3.40016 13.2998 2.88454 12.5281 2.53276 11.6788C2.18098 10.8295 1.99992 9.91929 1.99992 9.00004C1.99992 8.08079 2.18098 7.17054 2.53276 6.32126C2.88454 5.47198 3.40016 4.7003 4.05017 4.05029C4.70018 3.40028 5.47185 2.88467 6.32113 2.53288C7.17041 2.1811 8.08066 2.00004 8.99992 2.00004C10.8564 2.00004 12.6369 2.73754 13.9497 4.05029C15.2624 5.36305 15.9999 7.14352 15.9999 9.00004C15.9999 10.8566 15.2624 12.637 13.9497 13.9498C12.6369 15.2625 10.8564 16 8.99992 16ZM8.99992 14C10.326 14 11.5978 13.4733 12.5355 12.5356C13.4731 11.5979 13.9999 10.3261 13.9999 9.00004C13.9999 7.67396 13.4731 6.40219 12.5355 5.46451C11.5978 4.52682 10.326 4.00004 8.99992 4.00004C7.67384 4.00004 6.40207 4.52682 5.46438 5.46451C4.5267 6.40219 3.99992 7.67396 3.99992 9.00004C3.99992 10.3261 4.5267 11.5979 5.46438 12.5356C6.40207 13.4733 7.67384 14 8.99992 14Z" fill="#042330"/>
</svg>