<svg width="16" height="23" viewBox="0 0 16 23" fill="none" xmlns="http://www.w3.org/2000/svg">
<path d="M11.502 19.0001C10.8404 20.5824 9.58232 21.8405 8 22.5021C6.41768 21.8405 5.15956 20.5824 4.498 19.0001H6.758C7.084 19.4891 7.505 19.9121 8 20.2431C8.495 19.9131 8.916 19.4891 9.243 19.0001H11.502ZM14 13.8051L16 16.0731V18.0001H0V16.0731L2 13.8051V8.00008C2 4.51708 4.504 1.55308 8 0.455078C11.496 1.55308 14 4.51708 14 8.00008V13.8051ZM13.27 16.0001L12 14.5601V8.00008C12 5.68208 10.43 3.57008 8 2.58008C5.57 3.57008 4 5.68108 4 8.00008V14.5601L2.73 16.0001H13.27ZM8 10.0001C7.46957 10.0001 6.96086 9.78936 6.58579 9.41429C6.21071 9.03922 6 8.53051 6 8.00008C6 7.46965 6.21071 6.96094 6.58579 6.58586C6.96086 6.21079 7.46957 6.00008 8 6.00008C8.53043 6.00008 9.03914 6.21079 9.41421 6.58586C9.78929 6.96094 10 7.46965 10 8.00008C10 8.53051 9.78929 9.03922 9.41421 9.41429C9.03914 9.78936 8.53043 10.0001 8 10.0001Z" fill="#042330"/>
</svg>