<svg width="16" height="21" viewBox="0 0 16 21" fill="none" xmlns="http://www.w3.org/2000/svg">
<path d="M5.97296 16H10.027C10.159 14.798 10.772 13.806 11.767 12.723C11.88 12.601 12.599 11.856 12.684 11.75C13.3902 10.8676 13.8329 9.80369 13.9611 8.68075C14.0892 7.55781 13.8976 6.42151 13.4082 5.40271C12.9189 4.38392 12.1517 3.52406 11.1951 2.92215C10.2384 2.32025 9.13127 2.00078 8.00104 2.00054C6.87081 2.0003 5.7635 2.31929 4.80662 2.92079C3.84974 3.52228 3.08221 4.38182 2.59242 5.4004C2.10263 6.41899 1.9105 7.55521 2.03815 8.6782C2.1658 9.8012 2.60805 10.8653 3.31396 11.748C3.39996 11.855 4.12096 12.601 4.23196 12.722C5.22796 13.806 5.84096 14.798 5.97296 16ZM9.99996 18H5.99996V19H9.99996V18ZM1.75396 13C0.812151 11.8233 0.221908 10.4044 0.0512242 8.90694C-0.119459 7.40944 0.13636 5.89418 0.789214 4.53572C1.44207 3.17725 2.46539 2.03085 3.74132 1.22856C5.01724 0.426269 6.49384 0.00073532 8.00104 0.000976665C9.50824 0.00121801 10.9847 0.427224 12.2604 1.22992C13.536 2.03262 14.559 3.17935 15.2114 4.53803C15.8638 5.8967 16.1192 7.41204 15.948 8.90949C15.7768 10.4069 15.1861 11.8256 14.244 13.002C13.624 13.774 12 15 12 16.5V19C12 19.5304 11.7892 20.0391 11.4142 20.4142C11.0391 20.7893 10.5304 21 9.99996 21H5.99996C5.46953 21 4.96082 20.7893 4.58575 20.4142C4.21067 20.0391 3.99996 19.5304 3.99996 19V16.5C3.99996 15 2.37496 13.774 1.75396 13ZM8.99996 8.00397H11.5L6.99996 14.004V10.004H4.49996L8.99996 3.99997V8.00497V8.00397Z" fill="#042330"/>
</svg>