<svg width="23" height="19" viewBox="0 0 23 19" fill="none" xmlns="http://www.w3.org/2000/svg">
<path d="M18.2429 1.75698C19.7049 3.22298 20.2549 5.24998 19.8929 7.13698C20.4609 7.29698 20.9989 7.59998 21.4469 8.04498C22.8509 9.43898 22.8509 11.699 21.4469 13.092L15.9999 18.5L12.9779 15.5L9.9999 18.485L1.5199 9.99298C-0.583099 7.63698 -0.504099 4.01898 1.7569 1.75698C4.0219 -0.50702 7.6449 -0.58302 10.0009 1.52898C12.3499 -0.58002 15.9799 -0.51002 18.2429 1.75698ZM11.9619 9.46498C11.3459 10.076 11.3459 11.062 11.9619 11.673L15.9999 15.682L20.0379 11.673C20.6539 11.062 20.6539 10.076 20.0379 9.46498C19.4139 8.84498 18.3959 8.84498 17.7699 9.46698L15.9979 11.221L14.5909 9.82498L14.2279 9.46498C13.6039 8.84498 12.5859 8.84498 11.9619 9.46498ZM3.1719 3.17198C1.6819 4.66198 1.6069 7.04698 2.9799 8.62298L9.9999 15.654L11.5589 14.092L10.5529 13.092C9.1489 11.699 9.1489 9.43898 10.5529 8.04498C11.9569 6.65198 14.2329 6.65198 15.6369 8.04498L15.9999 8.40498L16.3629 8.04498C16.7879 7.62398 17.2929 7.32998 17.8279 7.16298C18.2439 5.79598 17.9059 4.25098 16.8269 3.16998C15.3269 1.66798 12.9069 1.60698 11.3369 3.01698L10.0019 4.21498L8.6659 3.01798C7.0909 1.60598 4.6759 1.66798 3.1719 3.17198Z" fill="#042330"/>
</svg>