<svg width="18" height="19" viewBox="0 0 18 19" fill="none" xmlns="http://www.w3.org/2000/svg">
<path d="M18 0V2C18 11.627 12.627 16 6 16H2.243C2.08 16.912 2 17.907 2 19H0C0 17.637 0.116 16.4 0.346 15.268C0.116 13.974 0 12.218 0 10C0 4.477 4.477 0 10 0C12 0 14 1 18 0ZM10 2C5.582 2 2 5.582 2 10C2 10.362 2.003 10.711 2.01 11.046C3.264 9.068 5.101 7.505 7.504 6.132L8.496 7.868C5.641 9.5 3.747 11.354 2.776 14H6C12.015 14 15.871 10.027 15.997 2.388C14.625 2.521 13.35 2.436 11.777 2.2C10.627 2.027 10.401 2 10 2Z" fill="#042330"/>
</svg>