<svg width="20" height="20" viewBox="0 0 20 20" fill="none" xmlns="http://www.w3.org/2000/svg">
<path d="M15.4752 14.195L19.353 18.0719L18.0719 19.353L14.195 15.4752C12.7525 16.6316 10.9583 17.2606 9.10947 17.2579C4.61151 17.2579 0.961 13.6074 0.961 9.10947C0.961 4.61151 4.61151 0.960999 9.10947 0.960999C13.6074 0.960999 17.2579 4.61151 17.2579 9.10947C17.2606 10.9583 16.6316 12.7525 15.4752 14.195ZM13.659 13.5232C14.8081 12.3416 15.4498 10.7577 15.4472 9.10947C15.4472 5.60744 12.6106 2.77177 9.10947 2.77177C5.60744 2.77177 2.77177 5.60744 2.77177 9.10947C2.77177 12.6106 5.60744 15.4472 9.10947 15.4472C10.7577 15.4498 12.3416 14.8081 13.5232 13.659L13.659 13.5232Z" fill="#042330"/>
</svg>
