<svg width="14" height="19" viewBox="0 0 14 19" fill="none" xmlns="http://www.w3.org/2000/svg">
<path d="M13.6667 18.3335H12V16.6668C12 16.0038 11.7366 15.3679 11.2678 14.8991C10.7989 14.4302 10.163 14.1668 9.49999 14.1668H4.49999C3.83695 14.1668 3.20107 14.4302 2.73223 14.8991C2.26339 15.3679 1.99999 16.0038 1.99999 16.6668V18.3335H0.333328V16.6668C0.333328 15.5618 0.772315 14.502 1.55372 13.7206C2.33512 12.9391 3.39493 12.5002 4.49999 12.5002H9.49999C10.6051 12.5002 11.6649 12.9391 12.4463 13.7206C13.2277 14.502 13.6667 15.5618 13.6667 16.6668V18.3335ZM6.99999 10.8335C6.34338 10.8335 5.69321 10.7042 5.08658 10.4529C4.47995 10.2016 3.92875 9.83332 3.46446 9.36903C3.00017 8.90474 2.63187 8.35354 2.3806 7.74691C2.12932 7.14029 1.99999 6.49011 1.99999 5.8335C1.99999 5.17689 2.12932 4.52671 2.3806 3.92008C2.63187 3.31345 3.00017 2.76226 3.46446 2.29796C3.92875 1.83367 4.47995 1.46537 5.08658 1.2141C5.69321 0.962825 6.34338 0.833496 6.99999 0.833496C8.32608 0.833496 9.59785 1.36028 10.5355 2.29796C11.4732 3.23564 12 4.50741 12 5.8335C12 7.15958 11.4732 8.43135 10.5355 9.36903C9.59785 10.3067 8.32608 10.8335 6.99999 10.8335ZM6.99999 9.16683C7.88405 9.16683 8.7319 8.81564 9.35702 8.19052C9.98214 7.5654 10.3333 6.71755 10.3333 5.8335C10.3333 4.94944 9.98214 4.10159 9.35702 3.47647C8.7319 2.85135 7.88405 2.50016 6.99999 2.50016C6.11594 2.50016 5.26809 2.85135 4.64297 3.47647C4.01785 4.10159 3.66666 4.94944 3.66666 5.8335C3.66666 6.71755 4.01785 7.5654 4.64297 8.19052C5.26809 8.81564 6.11594 9.16683 6.99999 9.16683Z" fill="#6D787E"/>
</svg>